<mxfile host="65bd71144e">
    <diagram id="vpsFb4n6XV1Hy7XxUASb" name="Page-1">
        <mxGraphModel dx="576" dy="432" grid="1" gridSize="10" guides="1" tooltips="1" connect="1" arrows="1" fold="1" page="1" pageScale="1" pageWidth="850" pageHeight="1100" background="#ffffff" math="0" shadow="0">
            <root>
                <mxCell id="0"/>
                <mxCell id="1" parent="0"/>
                <mxCell id="2" value="" style="rounded=0;whiteSpace=wrap;html=1;" vertex="1" parent="1">
                    <mxGeometry x="130" y="80" width="10" height="670" as="geometry"/>
                </mxCell>
                <mxCell id="3" value="" style="shape=umlActor;verticalLabelPosition=bottom;verticalAlign=top;html=1;outlineConnect=0;fontSize=10;fillColor=#e1d5e7;strokeColor=#9673a6;" vertex="1" parent="1">
                    <mxGeometry x="52.5" y="60" width="30" height="60" as="geometry"/>
                </mxCell>
                <mxCell id="4" value="Administrator,Student,&lt;br&gt;Fellow and Staff" style="text;html=1;strokeColor=none;fillColor=none;align=center;verticalAlign=middle;whiteSpace=wrap;rounded=0;fontSize=10;" vertex="1" parent="1">
                    <mxGeometry x="15" y="120" width="105" height="30" as="geometry"/>
                </mxCell>
                <mxCell id="5" value="" style="rounded=0;whiteSpace=wrap;html=1;" vertex="1" parent="1">
                    <mxGeometry x="440" y="80" width="10" height="670" as="geometry"/>
                </mxCell>
                <mxCell id="6" value="" style="rounded=0;whiteSpace=wrap;html=1;" vertex="1" parent="1">
                    <mxGeometry x="740" y="80" width="10" height="670" as="geometry"/>
                </mxCell>
                <mxCell id="7" value="&lt;font style=&quot;font-size: 18px;&quot;&gt;System&amp;nbsp;&lt;/font&gt;" style="text;html=1;strokeColor=none;fillColor=none;align=center;verticalAlign=middle;whiteSpace=wrap;rounded=0;fontSize=10;" vertex="1" parent="1">
                    <mxGeometry x="402.5" y="17.5" width="85" height="45" as="geometry"/>
                </mxCell>
                <mxCell id="8" value="Database" style="text;html=1;strokeColor=none;fillColor=none;align=center;verticalAlign=middle;whiteSpace=wrap;rounded=0;fontSize=18;" vertex="1" parent="1">
                    <mxGeometry x="715" y="25" width="60" height="30" as="geometry"/>
                </mxCell>
                <mxCell id="9" value="&lt;span style=&quot;font-size: 16px;&quot;&gt;naviagte to user profile section&lt;/span&gt;" style="text;html=1;strokeColor=none;fillColor=none;align=center;verticalAlign=middle;whiteSpace=wrap;rounded=0;fontSize=18;" vertex="1" parent="1">
                    <mxGeometry x="182.5" y="90" width="212.5" height="30" as="geometry"/>
                </mxCell>
                <mxCell id="10" value="" style="endArrow=classic;html=1;fontSize=18;" edge="1" parent="1">
                    <mxGeometry width="50" height="50" relative="1" as="geometry">
                        <mxPoint x="140" y="200" as="sourcePoint"/>
                        <mxPoint x="440" y="200" as="targetPoint"/>
                    </mxGeometry>
                </mxCell>
                <mxCell id="11" value="&lt;span style=&quot;font-size: 16px;&quot;&gt;select &quot;Edit Profile&quot; option&lt;/span&gt;" style="text;html=1;strokeColor=none;fillColor=none;align=center;verticalAlign=middle;whiteSpace=wrap;rounded=0;fontSize=18;" vertex="1" parent="1">
                    <mxGeometry x="182.5" y="150" width="210" height="30" as="geometry"/>
                </mxCell>
                <mxCell id="12" value="&lt;span style=&quot;font-size: 16px;&quot;&gt;display current profile information&lt;/span&gt;" style="text;html=1;strokeColor=none;fillColor=none;align=center;verticalAlign=middle;whiteSpace=wrap;rounded=0;fontSize=18;" vertex="1" parent="1">
                    <mxGeometry x="168.75" y="230" width="243.75" height="30" as="geometry"/>
                </mxCell>
                <mxCell id="13" value="save changes" style="text;html=1;align=center;verticalAlign=middle;whiteSpace=wrap;rounded=0;fontSize=16;" vertex="1" parent="1">
                    <mxGeometry x="166.25" y="365" width="242.5" height="30" as="geometry"/>
                </mxCell>
                <mxCell id="14" value="&lt;span style=&quot;font-size: 16px;&quot;&gt;update necessary fields&lt;/span&gt;" style="text;html=1;strokeColor=none;fillColor=none;align=center;verticalAlign=middle;whiteSpace=wrap;rounded=0;fontSize=18;" vertex="1" parent="1">
                    <mxGeometry x="182.5" y="300" width="216.25" height="30" as="geometry"/>
                </mxCell>
                <mxCell id="15" value="" style="endArrow=classic;html=1;fontSize=18;" edge="1" parent="1">
                    <mxGeometry width="50" height="50" relative="1" as="geometry">
                        <mxPoint x="140" y="134.5" as="sourcePoint"/>
                        <mxPoint x="440" y="134.5" as="targetPoint"/>
                    </mxGeometry>
                </mxCell>
                <mxCell id="16" value="" style="endArrow=classic;html=1;fontSize=18;" edge="1" parent="1">
                    <mxGeometry width="50" height="50" relative="1" as="geometry">
                        <mxPoint x="448.75" y="480" as="sourcePoint"/>
                        <mxPoint x="738.75" y="481" as="targetPoint"/>
                    </mxGeometry>
                </mxCell>
                <mxCell id="17" value="retrieve profile information" style="text;html=1;align=center;verticalAlign=middle;whiteSpace=wrap;rounded=0;fontSize=16;" vertex="1" parent="1">
                    <mxGeometry x="470" y="430" width="242.5" height="30" as="geometry"/>
                </mxCell>
                <mxCell id="18" value="confirm successful update" style="text;html=1;strokeColor=none;fillColor=none;align=center;verticalAlign=middle;whiteSpace=wrap;rounded=0;fontSize=16;" vertex="1" parent="1">
                    <mxGeometry x="472.5" y="580" width="242.5" height="30" as="geometry"/>
                </mxCell>
                <mxCell id="19" value="" style="endArrow=classic;html=1;fontSize=18;entryX=0;entryY=0.5;entryDx=0;entryDy=0;exitX=1;exitY=0.5;exitDx=0;exitDy=0;" edge="1" parent="1" source="2" target="5">
                    <mxGeometry width="50" height="50" relative="1" as="geometry">
                        <mxPoint x="150" y="410" as="sourcePoint"/>
                        <mxPoint x="440" y="410.4200000000001" as="targetPoint"/>
                    </mxGeometry>
                </mxCell>
                <mxCell id="20" value="" style="endArrow=classic;html=1;fontSize=18;" edge="1" parent="1">
                    <mxGeometry width="50" height="50" relative="1" as="geometry">
                        <mxPoint x="448.7500000000001" y="560" as="sourcePoint"/>
                        <mxPoint x="738.7500000000001" y="561" as="targetPoint"/>
                    </mxGeometry>
                </mxCell>
                <mxCell id="21" value="update user profile&amp;nbsp;" style="text;html=1;strokeColor=none;fillColor=none;align=center;verticalAlign=middle;whiteSpace=wrap;rounded=0;fontSize=16;" vertex="1" parent="1">
                    <mxGeometry x="472.5" y="510" width="242.5" height="30" as="geometry"/>
                </mxCell>
                <mxCell id="22" value="" style="endArrow=classic;html=1;fontSize=18;exitX=1;exitY=0.822;exitDx=0;exitDy=0;exitPerimeter=0;" edge="1" parent="1" source="2">
                    <mxGeometry width="50" height="50" relative="1" as="geometry">
                        <mxPoint x="150" y="630" as="sourcePoint"/>
                        <mxPoint x="440" y="631" as="targetPoint"/>
                    </mxGeometry>
                </mxCell>
                <mxCell id="23" value="" style="endArrow=classic;html=1;fontSize=18;exitX=1;exitY=0.822;exitDx=0;exitDy=0;exitPerimeter=0;" edge="1" parent="1">
                    <mxGeometry width="50" height="50" relative="1" as="geometry">
                        <mxPoint x="140.63" y="700" as="sourcePoint"/>
                        <mxPoint x="440.63" y="700.26" as="targetPoint"/>
                    </mxGeometry>
                </mxCell>
                <mxCell id="24" value="redirect to user profile section" style="text;html=1;strokeColor=none;fillColor=none;align=center;verticalAlign=middle;whiteSpace=wrap;rounded=0;fontSize=16;" vertex="1" parent="1">
                    <mxGeometry x="160" y="650" width="242.5" height="30" as="geometry"/>
                </mxCell>
                <mxCell id="25" value="" style="endArrow=classic;html=1;fontSize=18;entryX=0;entryY=0.5;entryDx=0;entryDy=0;exitX=1;exitY=0.5;exitDx=0;exitDy=0;" edge="1" parent="1">
                    <mxGeometry width="50" height="50" relative="1" as="geometry">
                        <mxPoint x="140" y="280" as="sourcePoint"/>
                        <mxPoint x="440" y="280" as="targetPoint"/>
                    </mxGeometry>
                </mxCell>
                <mxCell id="26" value="" style="endArrow=classic;html=1;fontSize=18;entryX=0;entryY=0.5;entryDx=0;entryDy=0;exitX=1;exitY=0.5;exitDx=0;exitDy=0;" edge="1" parent="1">
                    <mxGeometry width="50" height="50" relative="1" as="geometry">
                        <mxPoint x="140.63" y="350" as="sourcePoint"/>
                        <mxPoint x="440.63" y="350" as="targetPoint"/>
                    </mxGeometry>
                </mxCell>
                <mxCell id="27" value="" style="endArrow=classic;html=1;fontSize=18;exitX=1;exitY=0.822;exitDx=0;exitDy=0;exitPerimeter=0;" edge="1" parent="1">
                    <mxGeometry width="50" height="50" relative="1" as="geometry">
                        <mxPoint x="450" y="630" as="sourcePoint"/>
                        <mxPoint x="740" y="630" as="targetPoint"/>
                    </mxGeometry>
                </mxCell>
            </root>
        </mxGraphModel>
    </diagram>
</mxfile>